<?xml version="1.0" encoding="UTF-8" standalone="no"?>
<svg
   width="169"
   height="91"
   viewBox="0 0 169 91"
   fill="none"
   version="1.1"
   id="svg110"
   sodipodi:docname="nuevo.svg"
   inkscape:version="1.3.2 (091e20e, 2023-11-25, custom)"
   xmlns:inkscape="http://www.inkscape.org/namespaces/inkscape"
   xmlns:sodipodi="http://sodipodi.sourceforge.net/DTD/sodipodi-0.dtd"
   xmlns="http://www.w3.org/2000/svg"
   xmlns:svg="http://www.w3.org/2000/svg">
  <defs
     id="defs110" />
  <sodipodi:namedview
     id="namedview110"
     pagecolor="#ffffff"
     bordercolor="#000000"
     borderopacity="0.25"
     inkscape:showpageshadow="2"
     inkscape:pageopacity="0.0"
     inkscape:pagecheckerboard="0"
     inkscape:deskcolor="#d1d1d1"
     inkscape:zoom="13.322059"
     inkscape:cx="79.567279"
     inkscape:cy="65.192625"
     inkscape:window-width="3840"
     inkscape:window-height="2050"
     inkscape:window-x="-12"
     inkscape:window-y="-12"
     inkscape:window-maximized="1"
     inkscape:current-layer="svg110" />
  <path
     d="M26.8916 68.1306C21.5221 89.9079 21.5221 89.9079 21.5221 89.9079Z"
     fill="black"
     id="path95" />
  <path
     d="m 38.601938,67.141904 c 15.2402,15.979 15.2579,15.9975 15.2579,15.9975 z"
     fill="#000000"
     id="path87" />
  <path
     d="M30.215 66.2115C40.9812 85.7217 40.9812 85.7217 40.9812 85.7217Z"
     fill="black"
     id="path89" />
  <path
     d="M142.192 89.113C156.551 89.0308 168.121 76.7506 168.035 61.6844C167.948 46.6182 156.238 34.4713 141.88 34.5535C127.521 34.6357 115.951 46.916 116.037 61.9821C116.124 77.0483 127.834 89.1952 142.192 89.113Z"
     stroke="black"
     stroke-width="0.490983"
     id="path1"
     style="fill:#000000;fill-opacity:1" />
  <path
     d="M142.065 66.9449C144.727 66.9297 146.872 64.6287 146.856 61.8056C146.84 58.9824 144.669 56.7062 142.007 56.7214C139.345 56.7367 137.2 59.0376 137.216 61.8608C137.232 64.6839 139.403 66.9602 142.065 66.9449Z"
     fill="black"
     id="path2"
     style="fill:#000000;fill-opacity:1" />
  <path
     d="M62.3052 31.6221L23.6852 62.0557L25.6943 65.9201L64.3143 35.4866L62.3052 31.6221Z"
     fill="black"
     id="path3"
     style="fill:#000000;fill-opacity:1" />
  <path
     d="M68.3277 59.3378L27.6831 60.5667L27.2633 64.2895L67.9078 63.0606L68.3277 59.3378Z"
     fill="black"
     id="path4"
     style="fill:#000000;fill-opacity:1" />
  <path
     d="M 141.31176,56.144827 117.77645,14.5625 114.089,16.056501 137.62432,57.638915 Z"
     fill="#000000"
     id="path5"
     style="stroke-width:0.871864" />
  <path
     d="M124.866 30.7496L74.7985 56.9884L76.3493 60.5182L126.417 34.2794L124.866 30.7496Z"
     fill="black"
     id="path6" />
  <path
     d="M63.9541 30.9938L125.06 29.6981L124.155 33.738L63.049 35.0337L63.9541 30.9938Z"
     fill="black"
     id="path7" />
  <path
     d="M54.447 18.5921L74.621 59.235L78.3171 58.0551L58.1431 17.4122L54.447 18.5921Z"
     fill="black"
     id="path8" />
  <path
     d="M72.762 67.1023C76.1157 67.0831 78.8179 64.1842 78.7975 60.6274C78.7771 57.0706 76.0419 54.2029 72.6882 54.2221C69.3345 54.2413 66.6324 57.1402 66.6527 60.697C66.6731 64.2538 69.4083 67.1215 72.762 67.1023Z"
     fill="black"
     id="path9" />
  <path
     d="M93.9364 57.9652L84.8506 58.0172L84.8848 63.9943L93.9706 63.9423L93.9364 57.9652Z"
     fill="black"
     id="path10" />
  <path
     d="M85.5745 59.3873L78.5105 59.4277L78.5287 62.611L85.5927 62.5706L85.5745 59.3873Z"
     fill="black"
     id="path11" />
  <path
     d="M45.0834 26.0809L47.1668 12.0862C47.1778 12.0119 47.2035 11.9409 47.2422 11.8778C47.2809 11.8147 47.3316 11.761 47.3912 11.7201C47.4507 11.6792 47.5177 11.6521 47.5878 11.6405C47.6579 11.6289 47.7295 11.6331 47.798 11.6528L75.5692 19.6451C75.5985 19.6534 75.6243 19.672 75.6424 19.6977C75.6605 19.7235 75.6699 19.755 75.6691 19.7871C75.6683 19.8192 75.6574 19.8501 75.638 19.8748C75.6186 19.8995 75.5919 19.9165 75.5623 19.9232L45.5474 26.549C45.4858 26.5626 45.4221 26.5601 45.3615 26.5418C45.301 26.5235 45.2456 26.4899 45.2 26.4438C45.1545 26.3978 45.1201 26.3407 45.0999 26.2775C45.0797 26.2143 45.0735 26.1468 45.0834 26.0809Z"
     fill="black"
     id="path12" />
  <path
     d="M138.569 58.4704C123.523 42.6956 123.558 42.6581 123.558 42.6581Z"
     fill="black"
     id="path13" />
  <path
     d="M138.569 58.4704C123.523 42.6956 123.558 42.6581 123.558 42.6581"
     stroke="black"
     stroke-width="0.245669"
     id="path14" />
  <path
     d="M139.829 57.1943C129.291 38.0995 129.093 38.2227 129.093 38.2227Z"
     fill="black"
     id="path15" />
  <path
     d="M139.829 57.1943C129.291 38.0995 129.093 38.2227 129.093 38.2227"
     stroke="black"
     stroke-width="0.245669"
     id="path16" />
  <path
     d="M141.022 56.7397C135.522 35.482 135.201 35.5753 135.201 35.5753Z"
     fill="black"
     id="path17" />
  <path
     d="M141.022 56.7397C135.522 35.482 135.201 35.5753 135.201 35.5753"
     stroke="black"
     stroke-width="0.245669"
     id="path18" />
  <path
     d="M137.654 59.5076C119.389 48.4672 119.327 48.5818 119.327 48.5818Z"
     fill="black"
     id="path19" />
  <path
     d="M137.654 59.5076C119.389 48.4672 119.327 48.5818 119.327 48.5818"
     stroke="black"
     stroke-width="0.245669"
     id="path20" />
  <path
     d="M141.967 56.7911C141.84 34.625 141.84 34.5326 141.84 34.5326Z"
     fill="black"
     id="path21" />
  <path
     d="M141.967 56.7911C141.84 34.625 141.84 34.5326 141.84 34.5326"
     stroke="black"
     stroke-width="0.245669"
     id="path22" />
  <path
     d="M142.764 56.7866C148.053 35.3361 148.053 35.3361 148.053 35.3361Z"
     fill="black"
     id="path23" />
  <path
     d="M142.764 56.7866C148.053 35.3361 148.053 35.3361 148.053 35.3361"
     stroke="black"
     stroke-width="0.245669"
     id="path24" />
  <path
     d="M143.611 57.0983C154.036 37.6848 154.036 37.6848 154.036 37.6848Z"
     fill="black"
     id="path25" />
  <path
     d="M143.611 57.0983C154.036 37.6848 154.036 37.6848 154.036 37.6848"
     stroke="black"
     stroke-width="0.245669"
     id="path26" />
  <path
     d="M144.51 57.4617C159.421 41.4657 159.421 41.4657 159.421 41.4657Z"
     fill="black"
     id="path27" />
  <path
     d="M144.51 57.4617C159.421 41.4657 159.421 41.4657 159.421 41.4657"
     stroke="black"
     stroke-width="0.250624"
     id="path28" />
  <path
     d="M145.209 58.0392C163.632 46.613 163.645 46.6049 163.645 46.6049Z"
     fill="black"
     id="path29" />
  <path
     d="M145.209 58.0392C163.632 46.613 163.645 46.6049 163.645 46.6049"
     stroke="black"
     stroke-width="0.245669"
     id="path30" />
  <path
     d="M145.711 58.6697C166.392 52.6642 166.392 52.6642 166.392 52.6642Z"
     fill="black"
     id="path31" />
  <path
     d="M145.711 58.6697C166.392 52.6642 166.392 52.6642 166.392 52.6642"
     stroke="black"
     stroke-width="0.245669"
     id="path32" />
  <path
     d="M146.414 59.774C168.011 59.6504 168.06 59.6501 168.06 59.6501Z"
     fill="black"
     id="path33" />
  <path
     d="M146.414 59.774C168.011 59.6504 168.06 59.6501 168.06 59.6501"
     stroke="black"
     stroke-width="0.245669"
     id="path34" />
  <path
     d="M146.768 60.8804C167.64 66.6828 167.64 66.6828 167.64 66.6828Z"
     fill="black"
     id="path35" />
  <path
     d="M146.768 60.8804C167.64 66.6828 167.64 66.6828 167.64 66.6828"
     stroke="black"
     stroke-width="0.245669"
     id="path36" />
  <path
     d="M146.825 62.3044C165.45 73.5627 165.45 73.5627 165.45 73.5627Z"
     fill="black"
     id="path37" />
  <path
     d="M146.825 62.3044C165.45 73.5627 165.45 73.5627 165.45 73.5627"
     stroke="black"
     stroke-width="0.245669"
     id="path38" />
  <path
     d="M146.551 63.575C161.791 79.5539 161.809 79.5725 161.809 79.5725Z"
     fill="black"
     id="path39" />
  <path
     d="M146.551 63.575C161.791 79.5539 161.809 79.5725 161.809 79.5725"
     stroke="black"
     stroke-width="0.245669"
     id="path40" />
  <path
     d="M145.896 64.8965C156.662 84.4066 156.662 84.4066 156.662 84.4066Z"
     fill="black"
     id="path41" />
  <path
     d="M145.896 64.8965C156.662 84.4066 156.662 84.4066 156.662 84.4066"
     stroke="black"
     stroke-width="0.245669"
     id="path42" />
  <path
     d="M145.005 65.8516C150.629 87.5852 150.629 87.5852 150.629 87.5852Z"
     fill="black"
     id="path43" />
  <path
     d="M145.005 65.8516C150.629 87.5852 150.629 87.5852 150.629 87.5852"
     stroke="black"
     stroke-width="0.245669"
     id="path44" />
  <path
     d="M144.142 88.9734C144.013 66.385 144.013 66.385 144.013 66.385Z"
     fill="black"
     id="path45" />
  <path
     d="M144.142 88.9734C144.013 66.385 144.013 66.385 144.013 66.385"
     stroke="black"
     stroke-width="0.245669"
     id="path46" />
  <path
     d="M142.572 66.8156C137.203 88.5929 137.203 88.5929 137.203 88.5929Z"
     fill="black"
     id="path47" />
  <path
     d="M142.572 66.8156C137.203 88.5929 137.203 88.5929 137.203 88.5929"
     stroke="black"
     stroke-width="0.245669"
     id="path48" />
  <path
     d="M140.98 66.8246C130.521 86.3024 130.521 86.3024 130.521 86.3024Z"
     fill="black"
     id="path49" />
  <path
     d="M140.98 66.8246C130.521 86.3024 130.521 86.3024 130.521 86.3024"
     stroke="black"
     stroke-width="0.245669"
     id="path50" />
  <path
     d="M139.483 66.1471C124.694 82.0125 124.694 82.0125 124.694 82.0125Z"
     fill="black"
     id="path51" />
  <path
     d="M139.483 66.1471C124.694 82.0125 124.694 82.0125 124.694 82.0125"
     stroke="black"
     stroke-width="0.245669"
     id="path52" />
  <path
     d="M137.167 61.463C116.708 55.7754 116.708 55.7754 116.708 55.7754Z"
     fill="black"
     id="path53" />
  <path
     d="M137.167 61.463C116.708 55.7754 116.708 55.7754 116.708 55.7754"
     stroke="black"
     stroke-width="0.245669"
     id="path54" />
  <path
     d="M137.275 62.8874C116.126 63.0085 116.126 63.0085 116.126 63.0085Z"
     fill="black"
     id="path55" />
  <path
     d="M137.275 62.8874C116.126 63.0085 116.126 63.0085 116.126 63.0085"
     stroke="black"
     stroke-width="0.245669"
     id="path56" />
  <path
     d="M138.255 65.0405C119.92 76.4123 119.92 76.4123 119.92 76.4123Z"
     fill="black"
     id="path57" />
  <path
     d="M138.255 65.0405C119.92 76.4123 119.92 76.4123 119.92 76.4123"
     stroke="black"
     stroke-width="0.245669"
     id="path58" />
  <path
     d="m 26.586764,90.428096 c 14.358699,-0.0822 25.928699,-12.3625 25.842399,-27.428597 -0.0863,-15.0662 -11.7962,-27.2131 -26.154799,-27.1309 -14.358601,0.0822 -25.92867918,12.3624 -25.84240618,27.4286 0.08627,15.066197 11.79620518,27.213097 26.15480618,27.130897 z"
     stroke="#000000"
     stroke-width="0.490983"
     id="path59"
     style="fill:#000000;fill-opacity:1" />
  <path
     d="M26.3847 68.2601C29.0467 68.2449 31.1915 65.9439 31.1753 63.1208C31.1592 60.2976 28.9881 58.0214 26.3262 58.0366C23.6643 58.0519 21.5195 60.3528 21.5356 63.176C21.5518 65.9991 23.7228 68.2754 26.3847 68.2601Z"
     fill="black"
     id="path60"
     style="fill:#000000;fill-opacity:1" />
  <path
     d="M26.2869 58.1062C26.16 35.94 26.1594 35.8477 26.1594 35.8477Z"
     fill="black"
     id="path69" />
  <path
     d="M27.9309 58.4135C38.3556 39 38.3556 39 38.3556 39Z"
     fill="black"
     id="path73" />
  <path
     d="M28.8298 58.7767C43.7401 42.7808 43.7401 42.7808 43.7401 42.7808Z"
     fill="black"
     id="path75" />
  <path
     d="M29.5287 59.3544C47.9517 47.9282 47.9647 47.9201 47.9647 47.9201Z"
     fill="black"
     id="path77" />
  <path
     d="M30.0299 59.9849C50.7117 53.9794 50.7117 53.9794 50.7117 53.9794Z"
     fill="black"
     id="path79" />
  <path
     d="M30.733 61.0891C52.3301 60.9654 52.3798 60.9652 52.3798 60.9652Z"
     fill="black"
     id="path81" />
  <path
     d="M30.733 61.0891C52.3301 60.9654 52.3798 60.9652 52.3798 60.9652"
     stroke="black"
     stroke-width="0.245669"
     id="path82" />
  <path
     d="M31.0876 62.1954C51.9597 67.9978 51.9597 67.9978 51.9597 67.9978Z"
     fill="black"
     id="path83" />
  <path
     d="M28.4617 90.2886C28.3324 67.7002 28.3324 67.7002 28.3324 67.7002Z"
     fill="black"
     id="path93" />
  <path
     d="M25.2993 68.1398C14.8401 87.6176 14.8401 87.6176 14.8401 87.6176Z"
     fill="black"
     id="path97" />
  <path
     d="M23.8024 67.4623C9.0137 83.3277 9.0137 83.3277 9.0137 83.3277Z"
     fill="black"
     id="path99" />
  <path
     d="M21.4865 62.7782C1.02722 57.0906 1.02722 57.0906 1.02722 57.0906Z"
     fill="black"
     id="path101" />
  <path
     d="M21.5941 64.2026C0.44494 64.3237 0.444946 64.3237 0.444946 64.3237Z"
     fill="black"
     id="path103" />
  <path
     d="M21.948 65.1506C1.3913 71.1198 1.39129 71.1198 1.39129 71.1198Z"
     fill="black"
     id="path105" />
  <path
     d="M22.5743 66.3557C4.23908 77.7275 4.23908 77.7275 4.23908 77.7275Z"
     fill="black"
     id="path107" />
  <path
     d="M138.376 12.1078L101.777 12.3174L101.8 16.3728L138.399 16.1632L138.376 12.1078Z"
     fill="black"
     stroke="black"
     stroke-width="0.238362"
     id="path109" />
  <path
     d="M139.758 25.0472L143.345 23.3175L133.428 0.215417L129.841 1.94513L139.758 25.0472Z"
     fill="black"
     stroke="black"
     stroke-width="0.245669"
     id="path110" />
</svg>
